<?xml version="1.0" encoding="utf-8"?>
<!-- Generator: Adobe Illustrator 25.0.1, SVG Export Plug-In . SVG Version: 6.00 Build 0)  -->
<svg version="1.1" xmlns="http://www.w3.org/2000/svg" xmlns:xlink="http://www.w3.org/1999/xlink" x="0px" y="0px"
	 viewBox="0 0 750 500" style="enable-background:new 0 0 750 500;" xml:space="preserve">
<style type="text/css">
	.st0{display:none;}
	.st1{fill:#59EFD6;}
	.st2{fill:none;stroke:url(#SVGID_1_);stroke-width:13.2051;stroke-linecap:round;stroke-miterlimit:10;}
	.st3{fill:none;stroke:url(#SVGID_2_);stroke-width:13.2051;stroke-linecap:round;stroke-miterlimit:10;}
	.st4{fill:none;stroke:url(#SVGID_3_);stroke-width:13.2051;stroke-linecap:round;stroke-miterlimit:10;}
	.st5{fill:none;stroke:url(#SVGID_4_);stroke-width:13.2051;stroke-linecap:round;stroke-miterlimit:10;}
	.st6{opacity:0.5;fill:none;stroke:#1E1230;stroke-width:5;stroke-linecap:round;stroke-miterlimit:10;}
	.st7{fill:url(#SVGID_5_);}
	.st8{fill:url(#SVGID_6_);}
	.st9{opacity:0.5;fill:#1E1230;}
	.st10{fill:url(#SVGID_7_);}
	.st11{fill:url(#SVGID_8_);}
	.st12{fill:#1E1230;}
</style>
<g id="BACKGROUND" class="st0">
</g>
<g id="OBJECTS">
	<g>
		<image style="overflow:visible;" width="269" height="149" xlink:href="B89CBFD8.png"  transform="matrix(1 0 0 1 246 151)">
		</image>
	</g>
	<g>
		<path class="st1" d="M359.17,197.48v13.35c0,2.53-0.47,4.42-1.4,5.67c-1.68,2.26-5.14,3.39-10.39,3.39c-3.79,0-6.7-0.61-8.71-1.83
			c-1.18-0.71-1.99-1.68-2.44-2.9c-0.44-1.21-0.66-2.65-0.66-4.33v-13.35c0-0.36-0.08-0.63-0.24-0.82s-0.45-0.34-0.87-0.45v-0.56
			h7.44v0.56c-0.41,0.1-0.7,0.25-0.87,0.45c-0.17,0.19-0.25,0.47-0.25,0.83v11.89c0,1.37,0.08,2.39,0.23,3.05
			c0.15,0.66,0.44,1.21,0.86,1.65c1.12,1.19,3.03,1.78,5.73,1.78c2.71,0,4.63-0.59,5.74-1.78c0.41-0.44,0.69-0.99,0.84-1.65
			c0.15-0.66,0.23-1.67,0.23-3.05v-11.89c0-0.36-0.08-0.63-0.24-0.82s-0.45-0.34-0.87-0.45v-0.56h7.02v0.56
			c-0.42,0.12-0.71,0.27-0.87,0.45S359.17,197.12,359.17,197.48z"/>
		<path class="st1" d="M392.02,217.64v-20.18c0-0.35-0.08-0.62-0.24-0.8s-0.45-0.34-0.87-0.45v-0.56h7.44v0.56
			c-0.42,0.1-0.71,0.25-0.87,0.45s-0.24,0.46-0.24,0.81v20.18c0,0.36,0.08,0.64,0.25,0.83c0.17,0.19,0.46,0.34,0.86,0.44v0.56h-7.44
			v-0.56c0.42-0.12,0.71-0.27,0.87-0.45S392.02,218,392.02,217.64z"/>
	</g>
	<g>
		<path class="st1" d="M301.56,242.29c2.68,1.01,4.01,2.89,4.01,5.62c0,2.18-0.78,3.88-2.34,5.11c-0.79,0.62-1.71,1.06-2.75,1.33
			c-1.04,0.27-2.33,0.41-3.87,0.41h-16.29v-0.56c0.42-0.12,0.71-0.27,0.87-0.45c0.16-0.19,0.24-0.46,0.24-0.82v-20.16
			c0-0.36-0.08-0.63-0.24-0.82s-0.45-0.34-0.87-0.45v-0.56h16.13c1.55,0,2.79,0.12,3.74,0.35c0.94,0.23,1.77,0.63,2.48,1.19
			c1.41,1.11,2.11,2.7,2.11,4.78C304.79,239.59,303.71,241.27,301.56,242.29z M286.65,240.43h9.13c1.38,0,2.35-0.2,2.9-0.61
			c0.62-0.47,0.93-1.19,0.93-2.16c0-1-0.29-1.71-0.87-2.14c-0.58-0.42-1.56-0.64-2.95-0.64h-9.13V240.43z M286.65,250.85h8.83
			c1.64,0,2.82-0.23,3.54-0.68c0.83-0.52,1.24-1.38,1.24-2.57c0-1.18-0.41-2.03-1.24-2.57c-0.71-0.45-1.89-0.68-3.54-0.68h-8.83
			V250.85z"/>
		<path class="st1" d="M337.08,252.94v-20.18c0-0.35-0.08-0.62-0.24-0.8s-0.45-0.34-0.87-0.45v-0.56h7.44v0.56
			c-0.42,0.1-0.71,0.25-0.87,0.45s-0.24,0.46-0.24,0.81v20.18c0,0.36,0.08,0.64,0.25,0.83c0.17,0.19,0.46,0.34,0.86,0.45v0.56h-7.44
			v-0.56c0.42-0.12,0.71-0.27,0.87-0.45C337,253.58,337.08,253.3,337.08,252.94z"/>
		<path class="st1" d="M380.8,245.05v7.91c0,0.35,0.08,0.62,0.25,0.81c0.17,0.19,0.46,0.34,0.86,0.45v0.56h-7.44v-0.56
			c0.42-0.12,0.71-0.27,0.87-0.45c0.16-0.19,0.24-0.45,0.24-0.8v-20.18c0-0.36-0.08-0.63-0.24-0.82c-0.16-0.19-0.46-0.34-0.87-0.45
			v-0.56h14.91c1.82,0,3.26,0.1,4.32,0.31s1.99,0.58,2.78,1.1c0.92,0.6,1.61,1.43,2.06,2.46c0.43,1,0.65,2.07,0.65,3.21
			c0,3.89-2.16,6.16-6.48,6.82l4.62,6.58c0.81,1.15,1.41,1.89,1.79,2.23c0.38,0.33,0.84,0.51,1.39,0.55v0.56h-8.61v-0.56
			c0.59-0.09,0.89-0.3,0.89-0.63c0-0.21-0.27-0.72-0.82-1.52l-4.82-7.02H380.8z M380.8,241.12h8.03c1.19,0,2.03-0.03,2.51-0.1
			s0.94-0.22,1.34-0.44c0.88-0.48,1.33-1.34,1.33-2.58c0-1.24-0.44-2.11-1.33-2.58c-0.42-0.23-0.86-0.38-1.33-0.45
			c-0.47-0.06-1.31-0.1-2.52-0.1h-8.03V241.12z"/>
		<path class="st1" d="M431.32,252.94v-20.16c0-0.36-0.08-0.63-0.24-0.82s-0.45-0.34-0.87-0.45v-0.56h13.29c2.91,0,5.15,0.33,6.71,1
			c2.24,0.97,3.89,2.56,4.96,4.78c0.85,1.75,1.28,3.79,1.28,6.13c0,4.11-1.26,7.24-3.79,9.39c-1.06,0.91-2.3,1.56-3.72,1.95
			c-1.42,0.39-3.23,0.58-5.43,0.58H430.2v-0.56c0.42-0.12,0.71-0.27,0.87-0.45C431.24,253.58,431.32,253.3,431.32,252.94z
			 M436.52,250.85h6.54c2.08,0,3.65-0.28,4.7-0.85c2.25-1.22,3.37-3.6,3.37-7.14c0-2.56-0.61-4.52-1.82-5.88
			c-0.68-0.76-1.49-1.29-2.45-1.61c-0.96-0.32-2.23-0.48-3.81-0.48h-6.54V250.85z"/>
	</g>
	<linearGradient id="SVGID_1_" gradientUnits="userSpaceOnUse" x1="158.6414" y1="311.5691" x2="254.5699" y2="311.5691">
		<stop  offset="0" style="stop-color:#F5BE3D"/>
		<stop  offset="1" style="stop-color:#DB1A6D"/>
	</linearGradient>
	<line class="st2" x1="247.97" y1="311.57" x2="165.24" y2="311.57"/>
	<linearGradient id="SVGID_2_" gradientUnits="userSpaceOnUse" x1="140.1064" y1="290.7453" x2="216.4203" y2="290.7453">
		<stop  offset="0" style="stop-color:#F5BE3D"/>
		<stop  offset="1" style="stop-color:#DB1A6D"/>
	</linearGradient>
	<line class="st3" x1="209.82" y1="290.75" x2="146.71" y2="290.75"/>
	
		<linearGradient id="SVGID_3_" gradientUnits="userSpaceOnUse" x1="-28.8944" y1="513.3783" x2="67.0341" y2="513.3783" gradientTransform="matrix(-1 0 0 -1 554.6526 649.7694)">
		<stop  offset="0" style="stop-color:#F5BE3D"/>
		<stop  offset="1" style="stop-color:#DB1A6D"/>
	</linearGradient>
	<line class="st4" x1="494.22" y1="136.39" x2="576.94" y2="136.39"/>
	
		<linearGradient id="SVGID_4_" gradientUnits="userSpaceOnUse" x1="-47.4295" y1="492.5545" x2="28.8844" y2="492.5545" gradientTransform="matrix(-1 0 0 -1 554.6526 649.7694)">
		<stop  offset="0" style="stop-color:#F5BE3D"/>
		<stop  offset="1" style="stop-color:#DB1A6D"/>
	</linearGradient>
	<line class="st5" x1="532.37" y1="157.21" x2="595.48" y2="157.21"/>
	<line class="st6" x1="247.97" y1="311.57" x2="165.24" y2="311.57"/>
	<line class="st6" x1="209.82" y1="290.75" x2="146.71" y2="290.75"/>
	<line class="st6" x1="494.22" y1="136.39" x2="576.94" y2="136.39"/>
	<line class="st6" x1="532.37" y1="157.21" x2="595.48" y2="157.21"/>
	<g>
		<g>
			<image style="overflow:visible;" width="235" height="320" xlink:href="B89CBFDE.png"  transform="matrix(1 0 0 1 400 63)">
			</image>
		</g>
		<g>
			<image style="overflow:visible;" width="235" height="320" xlink:href="B89CBFDA.png"  transform="matrix(1 0 0 1 107 63)">
			</image>
		</g>
		<g>
			<linearGradient id="SVGID_5_" gradientUnits="userSpaceOnUse" x1="595.0034" y1="201.9962" x2="400.6408" y2="388.0168">
				<stop  offset="0" style="stop-color:#FA667E"/>
				<stop  offset="1" style="stop-color:#7C1D7C"/>
			</linearGradient>
			<path class="st7" d="M493.1,339.33l98.83-98.83c9.24-9.24,9.24-24.22,0-33.46l-21.42-21.42L436.56,319.58l19.75,19.75
				C466.47,349.49,482.94,349.49,493.1,339.33z"/>
			<linearGradient id="SVGID_6_" gradientUnits="userSpaceOnUse" x1="436.5585" y1="180.8819" x2="598.8695" y2="180.8819">
				<stop  offset="0" style="stop-color:#FA667E"/>
				<stop  offset="1" style="stop-color:#7C1D7C"/>
			</linearGradient>
			<path class="st8" d="M570.52,261.91L436.56,127.95l21-21c9.47-9.47,24.83-9.47,34.3,0l100.08,100.08
				c9.24,9.24,9.24,24.22,0,33.46L570.52,261.91z"/>
			<path class="st9" d="M570.52,261.91l-38.15-38.15l-95.81,95.81l19.75,19.75c10.16,10.16,26.64,10.16,36.8,0L570.52,261.91z"/>
			<polygon class="st9" points="570.52,261.91 532.37,223.76 436.56,319.58 			"/>
		</g>
		<g>
			
				<linearGradient id="SVGID_7_" gradientUnits="userSpaceOnUse" x1="827.248" y1="201.9962" x2="632.8855" y2="388.0169" gradientTransform="matrix(-1 0 0 1 974.4332 0)">
				<stop  offset="0" style="stop-color:#FA667E"/>
				<stop  offset="1" style="stop-color:#7C1D7C"/>
			</linearGradient>
			<path class="st10" d="M249.08,339.33l-98.83-98.83c-9.24-9.24-9.24-24.22,0-33.46l21.42-21.42l133.96,133.96l-19.75,19.75
				C275.72,349.49,259.25,349.49,249.08,339.33z"/>
			
				<linearGradient id="SVGID_8_" gradientUnits="userSpaceOnUse" x1="668.8032" y1="180.8819" x2="831.1141" y2="180.8819" gradientTransform="matrix(-1 0 0 1 974.4332 0)">
				<stop  offset="0" style="stop-color:#FA667E"/>
				<stop  offset="1" style="stop-color:#7C1D7C"/>
			</linearGradient>
			<path class="st11" d="M171.67,261.91l133.96-133.96l-21-21c-9.47-9.47-24.83-9.47-34.3,0L150.25,207.04
				c-9.24,9.24-9.24,24.22,0,33.46L171.67,261.91z"/>
			<path class="st9" d="M171.67,261.91l38.15-38.15l95.81,95.81l-19.75,19.75c-10.16,10.16-26.64,10.16-36.8,0L171.67,261.91z"/>
			<polygon class="st9" points="171.67,261.91 209.82,223.76 305.63,319.58 			"/>
		</g>
	</g>
	<polygon class="st9" points="171.67,261.91 305.63,127.95 295.45,117.77 	"/>
	<polygon class="st9" points="570.52,261.91 436.56,127.95 446.74,117.77 	"/>
	<polygon class="st9" points="171.67,261.91 217.75,231.53 209.82,223.76 	"/>
	<polygon class="st9" points="570.52,261.91 524.44,231.53 532.37,223.76 	"/>
	<g>
		<g>
			<circle class="st12" cx="163.78" cy="223.76" r="13.48"/>
			<circle class="st12" cx="576.94" cy="223.76" r="13.48"/>
		</g>
		<g>
			<path class="st12" d="M163.78,210.28c-7.44,0-13.48,6.03-13.48,13.48c0,0.64,0.06,1.27,0.15,1.89
				c0.92-6.55,6.53-11.59,13.33-11.59c6.8,0,12.41,5.04,13.33,11.59c0.09-0.62,0.15-1.25,0.15-1.89
				C177.26,216.32,171.23,210.28,163.78,210.28z"/>
			<path class="st12" d="M576.94,214.07c6.8,0,12.41,5.04,13.33,11.59c0.09-0.62,0.15-1.25,0.15-1.89c0-7.44-6.03-13.48-13.48-13.48
				c-7.44,0-13.48,6.03-13.48,13.48c0,0.64,0.06,1.27,0.15,1.89C564.53,219.11,570.14,214.07,576.94,214.07z"/>
		</g>
	</g>
</g>
</svg>
